<svg width="256" xmlns="http://www.w3.org/2000/svg" height="256" fill="none"><defs><clipPath id="a" class="frame-clip frame-clip-def"><rect rx="0" ry="0" width="256" height="256" transform="matrix(1.000000, 0.000000, 0.000000, 1.000000, 0.000000, 0.000000)"/></clipPath></defs><g clip-path="url(#a)"><g class="fills"><rect rx="0" ry="0" width="256" height="256" transform="matrix(1.000000, 0.000000, 0.000000, 1.000000, 0.000000, 0.000000)" class="frame-background"/></g><g class="frame-children"><g class="fills"><rect rx="0" ry="0" width="256" height="256" transform="matrix(1.000000, 0.000000, 0.000000, 1.000000, 0.000000, 0.000000)" class="frame-background"/></g><g class="frame-children"><rect rx="16" ry="16" x="12.8" y="140.8" transform="matrix(1.000000, 0.000000, 0.000000, 1.000000, 0.000000, 0.000000)" width="102.4" height="102.4" style="fill: rgb(241, 222, 84); fill-opacity: 1;" class="fills"/><path d="M128.000,12.800L179.200,115.200L76.800,115.200L128.000,12.800Z" style="fill: rgb(244, 104, 89); fill-opacity: 0.908;" class="fills"/><ellipse cx="192" cy="192" rx="51.2" ry="51.2" transform="matrix(1.000000, 0.000000, 0.000000, 1.000000, 0.000000, 0.000000)" style="fill: rgb(26, 203, 246); fill-opacity: 1;" class="fills"/></g></g></g></svg>