<svg width="256" xmlns="http://www.w3.org/2000/svg" height="256" fill="none"><defs><clipPath id="a" class="frame-clip frame-clip-def"><rect rx="0" ry="0" width="256" height="256" transform="matrix(1.000000, 0.000000, 0.000000, 1.000000, 0.000000, 0.000000)"/></clipPath></defs><g clip-path="url(#a)"><g class="fills"><rect width="256" height="256" class="frame-background" transform="matrix(1.000000, 0.000000, 0.000000, 1.000000, 0.000000, 0.000000)" style="fill: rgb(255, 255, 255); fill-opacity: 0;" ry="0" rx="0" fill="none"/></g><g class="frame-children"><g class="fills"><rect rx="0" ry="0" x="8" y="8" width="240" height="240" transform="matrix(1.000000, 0.000000, 0.000000, 1.000000, 0.000000, 0.000000)" class="frame-background"/></g><g class="frame-children"><path d="M20.000,155.000C20.000,146.721,26.721,140.000,35.000,140.000L101.000,140.000C109.279,140.000,116.000,146.721,116.000,155.000L116.000,221.000C116.000,229.279,109.279,236.000,101.000,236.000L35.000,236.000C26.721,236.000,20.000,229.279,20.000,221.000L20.000,155.000Z" style="fill: rgb(0, 0, 0); fill-opacity: 1;" class="fills"/><path d="M128.000,20.000L176.000,116.000L80.000,116.000L128.000,20.000Z" style="fill: rgb(0, 0, 0); fill-opacity: 1;" class="fills"/><ellipse cx="188" cy="188" rx="48" ry="48" transform="matrix(1.000000, 0.000000, 0.000000, 1.000000, 0.000000, 0.000000)" style="fill: rgb(0, 0, 0); fill-opacity: 1;" class="fills"/></g></g></g></svg>