<svg width="256" xmlns="http://www.w3.org/2000/svg" height="256" fill="none"><defs><clipPath id="a" class="frame-clip frame-clip-def"><rect rx="0" ry="0" width="256" height="256" transform="matrix(1.000000, 0.000000, 0.000000, 1.000000, 0.000000, 0.000000)"/></clipPath></defs><g clip-path="url(#a)"><g class="fills"><rect width="256" height="256" class="frame-background" transform="matrix(1.000000, 0.000000, 0.000000, 1.000000, 0.000000, 0.000000)" style="fill: rgb(255, 255, 255); fill-opacity: 0;" ry="0" rx="0" fill="none"/></g><g class="frame-children"><ellipse cx="128" cy="128" rx="128" ry="128" transform="matrix(1.000000, 0.000000, 0.000000, 1.000000, 0.000000, 0.000000)" style="fill: rgb(17, 17, 17); fill-opacity: 1;" class="fills"/><g class="fills"><rect width="160" height="160" class="frame-background" x="48" transform="matrix(1.000000, 0.000000, 0.000000, 1.000000, 0.000000, 0.000000)" style="fill: rgb(255, 255, 255); fill-opacity: 0;" ry="0" rx="0" y="48" fill="none"/></g><g class="frame-children"><rect rx="0" ry="0" x="136" y="136" transform="matrix(1.000000, 0.000000, 0.000000, 1.000000, 0.000000, 0.000000)" width="64" height="64" style="fill: rgb(28, 124, 246); fill-opacity: 1;" class="fills"/><path d="M88.000,136.000L120.000,200.000L56.000,200.000L88.000,136.000Z" style="fill: rgb(217, 74, 29); fill-opacity: 1;" class="fills"/><ellipse cx="128" cy="88" rx="32" ry="32" transform="matrix(1.000000, 0.000000, 0.000000, 1.000000, 0.000000, 0.000000)" style="fill: rgb(230, 186, 44); fill-opacity: 1;" class="fills"/></g></g></g></svg>