<svg width="256" xmlns="http://www.w3.org/2000/svg" height="256" fill="none"><defs><clipPath id="a" class="frame-clip frame-clip-def"><rect rx="0" ry="0" width="256" height="256" transform="matrix(1.000000, 0.000000, 0.000000, 1.000000, 0.000000, 0.000000)"/></clipPath></defs><g clip-path="url(#a)"><g class="fills"><rect width="256" height="256" class="frame-background" transform="matrix(1.000000, 0.000000, 0.000000, 1.000000, 0.000000, 0.000000)" style="fill: rgb(255, 255, 255); fill-opacity: 0;" ry="0" rx="0" fill="none"/></g><g class="frame-children"><ellipse cx="128" cy="128" rx="128" ry="128" transform="matrix(1.000000, 0.000000, 0.000000, 1.000000, 0.000000, 0.000000)" style="fill: rgb(39, 62, 83); fill-opacity: 1;" class="fills"/><g class="fills"><rect rx="0" ry="0" x="48" y="48" width="160" height="160" transform="matrix(1.000000, 0.000000, 0.000000, 1.000000, 0.000000, 0.000000)" class="frame-background"/></g><g class="frame-children"><rect rx="16" ry="16" x="56" y="136" transform="matrix(1.000000, 0.000000, 0.000000, 1.000000, 0.000000, 0.000000)" width="64" height="64" style="fill: rgb(241, 222, 84); fill-opacity: 1;" class="fills"/><path d="M128.000,56.000L160.000,120.000L96.000,120.000L128.000,56.000Z" style="fill: rgb(244, 104, 89); fill-opacity: 0.908;" class="fills"/><ellipse cx="168" cy="168" rx="32" ry="32" transform="matrix(1.000000, 0.000000, 0.000000, 1.000000, 0.000000, 0.000000)" style="fill: rgb(26, 203, 246); fill-opacity: 1;" class="fills"/></g></g></g></svg>