<svg width="256" xmlns="http://www.w3.org/2000/svg" height="256" fill="none"><defs><clipPath id="a" class="frame-clip frame-clip-def"><rect rx="0" ry="0" width="256" height="256" transform="matrix(1.000000, 0.000000, 0.000000, 1.000000, 0.000000, 0.000000)"/></clipPath></defs><g clip-path="url(#a)"><g class="fills"><rect width="256" height="256" class="frame-background" transform="matrix(1.000000, 0.000000, 0.000000, 1.000000, 0.000000, 0.000000)" style="fill: rgb(255, 255, 255); fill-opacity: 0;" ry="0" rx="0" fill="none"/></g><g class="frame-children"><ellipse cx="128" cy="128" rx="128" ry="128" transform="matrix(1.000000, 0.000000, 0.000000, 1.000000, 0.000000, 0.000000)" style="fill: rgb(39, 62, 83); fill-opacity: 1;" class="fills"/><g class="fills"><rect rx="0" ry="0" x="48" y="48" width="160" height="160" transform="matrix(1.000000, 0.000000, 0.000000, 1.000000, 0.000000, 0.000000)" class="frame-background"/></g><g class="frame-children"><path d="M56.000,146.000C56.000,140.481,60.481,136.000,66.000,136.000L110.000,136.000C115.519,136.000,120.000,140.481,120.000,146.000L120.000,190.000C120.000,195.519,115.519,200.000,110.000,200.000L66.000,200.000C60.481,200.000,56.000,195.519,56.000,190.000L56.000,146.000Z" style="fill: rgb(241, 222, 84); fill-opacity: 1;" class="fills"/><path d="M128.000,56.000L160.000,120.000L96.000,120.000L128.000,56.000Z" style="fill: rgb(244, 104, 89); fill-opacity: 0.908;" class="fills"/><ellipse cx="168" cy="168" rx="32" ry="32" transform="matrix(1.000000, 0.000000, 0.000000, 1.000000, 0.000000, 0.000000)" style="fill: rgb(26, 203, 246); fill-opacity: 1;" class="fills"/></g></g></g></svg>